{"glyphs":{"0":{"ha":1389,"x_min":174,"x_max":1215,"o":"m 1215 174 l 1042 174 l 1042 0 l 347 0 l 347 174 l 174 174 l 174 868 l 347 868 l 347 1042 l 1042 1042 l 1042 868 l 1215 868 l 1215 174 m 868 174 l 868 521 l 694 521 l 694 694 l 868 694 l 868 868 l 521 868 l 521 521 l 694 521 l 694 347 l 521 347 l 521 174 l 868 174 z "},"1":{"ha":1389,"x_min":174,"x_max":1215,"o":"m 1215 0 l 174 0 l 174 174 l 521 174 l 521 694 l 347 694 l 347 868 l 521 868 l 521 1042 l 868 1042 l 868 174 l 1215 174 l 1215 0 z "},"2":{"ha":1389,"x_min":174,"x_max":1215,"o":"m 1215 0 l 174 0 l 174 174 l 347 174 l 347 347 l 521 347 l 521 521 l 694 521 l 694 694 l 868 694 l 868 868 l 521 868 l 521 694 l 174 694 l 174 868 l 347 868 l 347 1042 l 1042 1042 l 1042 868 l 1215 868 l 1215 694 l 1042 694 l 1042 521 l 868 521 l 868 347 l 694 347 l 694 174 l 1215 174 l 1215 0 z "},"3":{"ha":1389,"x_min":174,"x_max":1215,"o":"m 1215 174 l 1042 174 l 1042 0 l 347 0 l 347 174 l 174 174 l 174 347 l 521 347 l 521 174 l 868 174 l 868 347 l 694 347 l 694 521 l 521 521 l 521 694 l 694 694 l 694 868 l 174 868 l 174 1042 l 1215 1042 l 1215 868 l 1042 868 l 1042 694 l 868 694 l 868 521 l 1042 521 l 1042 347 l 1215 347 l 1215 174 z "},"4":{"ha":1389,"x_min":174,"x_max":1215,"o":"m 1215 174 l 1042 174 l 1042 0 l 694 0 l 694 174 l 174 174 l 174 521 l 347 521 l 347 694 l 521 694 l 521 868 l 694 868 l 694 1042 l 1042 1042 l 1042 347 l 1215 347 l 1215 174 m 694 347 l 694 521 l 521 521 l 521 347 l 694 347 z "},"5":{"ha":1389,"x_min":174,"x_max":1215,"o":"m 1215 174 l 1042 174 l 1042 0 l 347 0 l 347 174 l 174 174 l 174 347 l 521 347 l 521 174 l 868 174 l 868 521 l 174 521 l 174 1042 l 1215 1042 l 1215 868 l 521 868 l 521 694 l 1042 694 l 1042 521 l 1215 521 l 1215 174 z "},"6":{"ha":1389,"x_min":174,"x_max":1215,"o":"m 1215 174 l 1042 174 l 1042 0 l 347 0 l 347 174 l 174 174 l 174 868 l 347 868 l 347 1042 l 1042 1042 l 1042 868 l 521 868 l 521 694 l 1042 694 l 1042 521 l 1215 521 l 1215 174 m 868 174 l 868 521 l 521 521 l 521 174 l 868 174 z "},"7":{"ha":1389,"x_min":174,"x_max":1215,"o":"m 1215 694 l 1042 694 l 1042 521 l 868 521 l 868 347 l 694 347 l 694 0 l 347 0 l 347 347 l 521 347 l 521 521 l 694 521 l 694 694 l 868 694 l 868 868 l 174 868 l 174 1042 l 1215 1042 l 1215 694 z "},"8":{"ha":1389,"x_min":174,"x_max":1215,"o":"m 1215 174 l 1042 174 l 1042 0 l 347 0 l 347 174 l 174 174 l 174 521 l 347 521 l 347 694 l 174 694 l 174 868 l 347 868 l 347 1042 l 1042 1042 l 1042 868 l 1215 868 l 1215 694 l 1042 694 l 1042 521 l 1215 521 l 1215 174 m 868 694 l 868 868 l 521 868 l 521 694 l 868 694 m 868 174 l 868 521 l 521 521 l 521 174 l 868 174 z "},"9":{"ha":1389,"x_min":174,"x_max":1215,"o":"m 1215 347 l 1042 347 l 1042 174 l 868 174 l 868 0 l 347 0 l 347 174 l 694 174 l 694 347 l 868 347 l 868 521 l 347 521 l 347 694 l 174 694 l 174 868 l 347 868 l 347 1042 l 1042 1042 l 1042 868 l 1215 868 l 1215 347 m 868 694 l 868 868 l 521 868 l 521 694 l 868 694 z "}," ":{"ha":1389,"x_min":0,"x_max":0,"o":""},"!":{"ha":1389,"x_min":521,"x_max":868,"o":"m 868 347 l 521 347 l 521 1042 l 868 1042 l 868 347 m 868 0 l 521 0 l 521 174 l 868 174 l 868 0 z "},"\"":{"ha":1389,"x_min":174,"x_max":1215,"o":"m 1215 521 l 868 521 l 868 1042 l 1215 1042 l 1215 521 m 521 521 l 174 521 l 174 1042 l 521 1042 l 521 521 z "},"#":{"ha":1389,"x_min":0,"x_max":1389,"o":"m 1389 174 l 1215 174 l 1215 0 l 868 0 l 868 174 l 521 174 l 521 0 l 174 0 l 174 174 l 0 174 l 0 347 l 174 347 l 174 694 l 0 694 l 0 868 l 174 868 l 174 1042 l 521 1042 l 521 868 l 868 868 l 868 1042 l 1215 1042 l 1215 868 l 1389 868 l 1389 694 l 1215 694 l 1215 347 l 1389 347 l 1389 174 m 868 347 l 868 694 l 521 694 l 521 347 l 868 347 z "},"$":{"ha":1389,"x_min":174,"x_max":1215,"o":"m 1215 347 l 1042 347 l 1042 174 l 868 174 l 868 0 l 521 0 l 521 174 l 174 174 l 174 347 l 868 347 l 868 521 l 347 521 l 347 694 l 174 694 l 174 868 l 347 868 l 347 1042 l 521 1042 l 521 1215 l 868 1215 l 868 1042 l 1215 1042 l 1215 868 l 521 868 l 521 694 l 1042 694 l 1042 521 l 1215 521 l 1215 347 z "},"%":{"ha":1389,"x_min":174,"x_max":1215,"o":"m 521 694 l 174 694 l 174 1042 l 521 1042 l 521 694 m 1215 868 l 1042 868 l 1042 694 l 868 694 l 868 521 l 694 521 l 694 347 l 521 347 l 521 174 l 347 174 l 347 0 l 174 0 l 174 347 l 347 347 l 347 521 l 521 521 l 521 694 l 694 694 l 694 868 l 868 868 l 868 1042 l 1215 1042 l 1215 868 m 1215 0 l 868 0 l 868 347 l 1215 347 l 1215 0 z "},"&":{"ha":1389,"x_min":174,"x_max":1389,"o":"m 1389 0 l 1042 0 l 1042 174 l 868 174 l 868 347 l 694 347 l 694 521 l 521 521 l 521 174 l 868 174 l 868 0 l 347 0 l 347 174 l 174 174 l 174 521 l 347 521 l 347 694 l 521 694 l 521 868 l 347 868 l 347 1042 l 521 1042 l 521 1215 l 1042 1215 l 1042 1042 l 1215 1042 l 1215 868 l 1042 868 l 1042 694 l 868 694 l 868 521 l 1389 521 l 1389 347 l 1215 347 l 1215 174 l 1389 174 l 1389 0 m 868 868 l 868 1042 l 694 1042 l 694 868 l 868 868 z "},"'":{"ha":1389,"x_min":521,"x_max":868,"o":"m 868 521 l 521 521 l 521 1042 l 868 1042 l 868 521 z "},"(":{"ha":1389,"x_min":521,"x_max":1215,"o":"m 1215 0 l 694 0 l 694 174 l 521 174 l 521 868 l 694 868 l 694 1042 l 1215 1042 l 1215 868 l 1042 868 l 1042 694 l 868 694 l 868 347 l 1042 347 l 1042 174 l 1215 174 l 1215 0 z "},")":{"ha":1389,"x_min":174,"x_max":868,"o":"m 868 174 l 694 174 l 694 0 l 174 0 l 174 174 l 347 174 l 347 347 l 521 347 l 521 694 l 347 694 l 347 868 l 174 868 l 174 1042 l 694 1042 l 694 868 l 868 868 l 868 174 z "},"*":{"ha":1389,"x_min":0,"x_max":1389,"o":"m 1389 521 l 1042 521 l 1042 347 l 1215 347 l 1215 174 l 868 174 l 868 347 l 521 347 l 521 174 l 174 174 l 174 347 l 347 347 l 347 521 l 0 521 l 0 694 l 347 694 l 347 868 l 174 868 l 174 1042 l 521 1042 l 521 868 l 868 868 l 868 1042 l 1215 1042 l 1215 868 l 1042 868 l 1042 694 l 1389 694 l 1389 521 z "},"+":{"ha":1389,"x_min":174,"x_max":1215,"o":"m 1215 521 l 868 521 l 868 174 l 521 174 l 521 521 l 174 521 l 174 694 l 521 694 l 521 1042 l 868 1042 l 868 694 l 1215 694 l 1215 521 z "},",":{"ha":1389,"x_min":347,"x_max":868,"o":"m 868 0 l 694 0 l 694 -174 l 347 -174 l 347 0 l 521 0 l 521 347 l 868 347 l 868 0 z "},"-":{"ha":1389,"x_min":174,"x_max":1215,"o":"m 1215 521 l 174 521 l 174 694 l 1215 694 l 1215 521 z "},".":{"ha":1389,"x_min":521,"x_max":868,"o":"m 868 0 l 521 0 l 521 347 l 868 347 l 868 0 z "},"/":{"ha":1389,"x_min":174,"x_max":1215,"o":"m 1215 868 l 1042 868 l 1042 694 l 868 694 l 868 521 l 694 521 l 694 347 l 521 347 l 521 174 l 347 174 l 347 0 l 174 0 l 174 347 l 347 347 l 347 521 l 521 521 l 521 694 l 694 694 l 694 868 l 868 868 l 868 1042 l 1215 1042 l 1215 868 z "},":":{"ha":1389,"x_min":521,"x_max":868,"o":"m 868 521 l 521 521 l 521 868 l 868 868 l 868 521 m 868 0 l 521 0 l 521 347 l 868 347 l 868 0 z "},";":{"ha":1389,"x_min":347,"x_max":868,"o":"m 868 521 l 521 521 l 521 868 l 868 868 l 868 521 m 868 0 l 694 0 l 694 -174 l 347 -174 l 347 0 l 521 0 l 521 347 l 868 347 l 868 0 z "},"<":{"ha":1389,"x_min":347,"x_max":1215,"o":"m 1215 0 l 868 0 l 868 174 l 694 174 l 694 347 l 521 347 l 521 521 l 347 521 l 347 694 l 521 694 l 521 868 l 694 868 l 694 1042 l 868 1042 l 868 1215 l 1215 1215 l 1215 1042 l 1042 1042 l 1042 868 l 868 868 l 868 694 l 694 694 l 694 521 l 868 521 l 868 347 l 1042 347 l 1042 174 l 1215 174 l 1215 0 z "},"=":{"ha":1389,"x_min":174,"x_max":1215,"o":"m 1215 694 l 174 694 l 174 868 l 1215 868 l 1215 694 m 1215 174 l 174 174 l 174 347 l 1215 347 l 1215 174 z "},">":{"ha":1389,"x_min":174,"x_max":1042,"o":"m 1042 521 l 868 521 l 868 347 l 694 347 l 694 174 l 521 174 l 521 0 l 174 0 l 174 174 l 347 174 l 347 347 l 521 347 l 521 521 l 694 521 l 694 694 l 521 694 l 521 868 l 347 868 l 347 1042 l 174 1042 l 174 1215 l 521 1215 l 521 1042 l 694 1042 l 694 868 l 868 868 l 868 694 l 1042 694 l 1042 521 z "},"?":{"ha":1389,"x_min":174,"x_max":1215,"o":"m 1215 694 l 1042 694 l 1042 521 l 868 521 l 868 347 l 521 347 l 521 521 l 694 521 l 694 694 l 868 694 l 868 868 l 521 868 l 521 694 l 174 694 l 174 868 l 347 868 l 347 1042 l 1042 1042 l 1042 868 l 1215 868 l 1215 694 m 868 0 l 521 0 l 521 174 l 868 174 l 868 0 z "},"@":{"ha":1389,"x_min":174,"x_max":1215,"o":"m 1215 0 l 347 0 l 347 174 l 174 174 l 174 868 l 347 868 l 347 1042 l 1042 1042 l 1042 868 l 1215 868 l 1215 347 l 694 347 l 694 694 l 868 694 l 868 868 l 521 868 l 521 174 l 1215 174 l 1215 0 z "},"A":{"ha":1389,"x_min":174,"x_max":1215,"o":"m 1215 0 l 868 0 l 868 174 l 521 174 l 521 0 l 174 0 l 174 694 l 347 694 l 347 868 l 521 868 l 521 1042 l 868 1042 l 868 868 l 1042 868 l 1042 694 l 1215 694 l 1215 0 m 868 347 l 868 694 l 521 694 l 521 347 l 868 347 z "},"B":{"ha":1389,"x_min":174,"x_max":1215,"o":"m 1215 174 l 1042 174 l 1042 0 l 174 0 l 174 1042 l 1042 1042 l 1042 868 l 1215 868 l 1215 694 l 1042 694 l 1042 521 l 1215 521 l 1215 174 m 868 694 l 868 868 l 521 868 l 521 694 l 868 694 m 868 174 l 868 521 l 521 521 l 521 174 l 868 174 z "},"C":{"ha":1389,"x_min":174,"x_max":1215,"o":"m 1215 174 l 1042 174 l 1042 0 l 347 0 l 347 174 l 174 174 l 174 868 l 347 868 l 347 1042 l 1042 1042 l 1042 868 l 1215 868 l 1215 694 l 868 694 l 868 868 l 521 868 l 521 174 l 868 174 l 868 347 l 1215 347 l 1215 174 z "},"D":{"ha":1389,"x_min":174,"x_max":1215,"o":"m 1215 347 l 1042 347 l 1042 174 l 868 174 l 868 0 l 174 0 l 174 1042 l 868 1042 l 868 868 l 1042 868 l 1042 694 l 1215 694 l 1215 347 m 868 347 l 868 694 l 694 694 l 694 868 l 521 868 l 521 174 l 694 174 l 694 347 l 868 347 z "},"E":{"ha":1389,"x_min":174,"x_max":1215,"o":"m 1215 0 l 174 0 l 174 1042 l 1215 1042 l 1215 868 l 521 868 l 521 694 l 1042 694 l 1042 521 l 521 521 l 521 174 l 1215 174 l 1215 0 z "},"F":{"ha":1389,"x_min":174,"x_max":1215,"o":"m 1215 868 l 521 868 l 521 694 l 1042 694 l 1042 521 l 521 521 l 521 0 l 174 0 l 174 1042 l 1215 1042 l 1215 868 z "},"G":{"ha":1389,"x_min":174,"x_max":1215,"o":"m 1215 0 l 347 0 l 347 174 l 174 174 l 174 868 l 347 868 l 347 1042 l 1215 1042 l 1215 868 l 521 868 l 521 174 l 868 174 l 868 347 l 694 347 l 694 521 l 1215 521 l 1215 0 z "},"H":{"ha":1389,"x_min":174,"x_max":1215,"o":"m 1215 0 l 868 0 l 868 521 l 521 521 l 521 0 l 174 0 l 174 1042 l 521 1042 l 521 694 l 868 694 l 868 1042 l 1215 1042 l 1215 0 z "},"I":{"ha":1389,"x_min":174,"x_max":1215,"o":"m 1215 0 l 174 0 l 174 174 l 521 174 l 521 868 l 174 868 l 174 1042 l 1215 1042 l 1215 868 l 868 868 l 868 174 l 1215 174 l 1215 0 z "},"J":{"ha":1389,"x_min":174,"x_max":1215,"o":"m 1215 174 l 1042 174 l 1042 0 l 347 0 l 347 174 l 174 174 l 174 347 l 521 347 l 521 174 l 868 174 l 868 868 l 694 868 l 694 1042 l 1215 1042 l 1215 174 z "},"K":{"ha":1389,"x_min":174,"x_max":1215,"o":"m 1215 0 l 868 0 l 868 174 l 694 174 l 694 347 l 521 347 l 521 0 l 174 0 l 174 1042 l 521 1042 l 521 694 l 694 694 l 694 868 l 868 868 l 868 1042 l 1215 1042 l 1215 868 l 1042 868 l 1042 694 l 868 694 l 868 347 l 1042 347 l 1042 174 l 1215 174 l 1215 0 z "},"L":{"ha":1389,"x_min":174,"x_max":1215,"o":"m 1215 0 l 174 0 l 174 1042 l 521 1042 l 521 174 l 1215 174 l 1215 0 z "},"M":{"ha":1389,"x_min":174,"x_max":1389,"o":"m 1389 0 l 1042 0 l 1042 521 l 868 521 l 868 347 l 694 347 l 694 521 l 521 521 l 521 0 l 174 0 l 174 1042 l 521 1042 l 521 868 l 694 868 l 694 694 l 868 694 l 868 868 l 1042 868 l 1042 1042 l 1389 1042 l 1389 0 z "},"N":{"ha":1389,"x_min":174,"x_max":1215,"o":"m 1215 0 l 868 0 l 868 174 l 694 174 l 694 347 l 521 347 l 521 0 l 174 0 l 174 1042 l 521 1042 l 521 868 l 694 868 l 694 694 l 868 694 l 868 1042 l 1215 1042 l 1215 0 z "},"O":{"ha":1389,"x_min":174,"x_max":1215,"o":"m 1215 174 l 1042 174 l 1042 0 l 347 0 l 347 174 l 174 174 l 174 868 l 347 868 l 347 1042 l 1042 1042 l 1042 868 l 1215 868 l 1215 174 m 868 174 l 868 868 l 521 868 l 521 174 l 868 174 z "},"P":{"ha":1389,"x_min":174,"x_max":1215,"o":"m 1215 521 l 1042 521 l 1042 347 l 521 347 l 521 0 l 174 0 l 174 1042 l 1042 1042 l 1042 868 l 1215 868 l 1215 521 m 868 521 l 868 868 l 521 868 l 521 521 l 868 521 z "},"Q":{"ha":1389,"x_min":174,"x_max":1215,"o":"m 1215 0 l 868 0 l 868 174 l 694 174 l 694 347 l 868 347 l 868 868 l 521 868 l 521 174 l 694 174 l 694 0 l 347 0 l 347 174 l 174 174 l 174 868 l 347 868 l 347 1042 l 1042 1042 l 1042 868 l 1215 868 l 1215 347 l 1042 347 l 1042 174 l 1215 174 l 1215 0 z "},"R":{"ha":1389,"x_min":174,"x_max":1215,"o":"m 1215 0 l 868 0 l 868 174 l 694 174 l 694 347 l 521 347 l 521 0 l 174 0 l 174 1042 l 1042 1042 l 1042 868 l 1215 868 l 1215 521 l 1042 521 l 1042 174 l 1215 174 l 1215 0 m 868 521 l 868 868 l 521 868 l 521 521 l 868 521 z "},"S":{"ha":1389,"x_min":174,"x_max":1215,"o":"m 1215 174 l 1042 174 l 1042 0 l 347 0 l 347 174 l 868 174 l 868 521 l 347 521 l 347 694 l 174 694 l 174 868 l 347 868 l 347 1042 l 1042 1042 l 1042 868 l 521 868 l 521 694 l 1042 694 l 1042 521 l 1215 521 l 1215 174 z "},"T":{"ha":1389,"x_min":174,"x_max":1215,"o":"m 1215 868 l 868 868 l 868 0 l 521 0 l 521 868 l 174 868 l 174 1042 l 1215 1042 l 1215 868 z "},"U":{"ha":1389,"x_min":174,"x_max":1215,"o":"m 1215 0 l 174 0 l 174 1042 l 521 1042 l 521 174 l 868 174 l 868 1042 l 1215 1042 l 1215 0 z "},"V":{"ha":1389,"x_min":174,"x_max":1215,"o":"m 1215 347 l 1042 347 l 1042 174 l 868 174 l 868 0 l 521 0 l 521 174 l 347 174 l 347 347 l 174 347 l 174 1042 l 521 1042 l 521 347 l 868 347 l 868 1042 l 1215 1042 l 1215 347 z "},"W":{"ha":1389,"x_min":174,"x_max":1389,"o":"m 1389 0 l 1042 0 l 1042 174 l 868 174 l 868 347 l 694 347 l 694 174 l 521 174 l 521 0 l 174 0 l 174 1042 l 521 1042 l 521 521 l 694 521 l 694 694 l 868 694 l 868 521 l 1042 521 l 1042 1042 l 1389 1042 l 1389 0 z "},"X":{"ha":1389,"x_min":174,"x_max":1215,"o":"m 1215 0 l 868 0 l 868 347 l 521 347 l 521 0 l 174 0 l 174 347 l 347 347 l 347 694 l 174 694 l 174 1042 l 521 1042 l 521 694 l 868 694 l 868 1042 l 1215 1042 l 1215 694 l 1042 694 l 1042 347 l 1215 347 l 1215 0 z "},"Y":{"ha":1389,"x_min":174,"x_max":1215,"o":"m 1215 694 l 1042 694 l 1042 521 l 868 521 l 868 0 l 521 0 l 521 521 l 347 521 l 347 694 l 174 694 l 174 1042 l 521 1042 l 521 694 l 868 694 l 868 1042 l 1215 1042 l 1215 694 z "},"Z":{"ha":1389,"x_min":174,"x_max":1215,"o":"m 1215 0 l 174 0 l 174 347 l 347 347 l 347 521 l 521 521 l 521 694 l 694 694 l 694 868 l 174 868 l 174 1042 l 1215 1042 l 1215 868 l 1042 868 l 1042 694 l 868 694 l 868 521 l 694 521 l 694 347 l 521 347 l 521 174 l 1215 174 l 1215 0 z "},"[":{"ha":1389,"x_min":521,"x_max":1215,"o":"m 1215 0 l 521 0 l 521 1042 l 1215 1042 l 1215 868 l 868 868 l 868 174 l 1215 174 l 1215 0 z "},"\\":{"ha":1389,"x_min":174,"x_max":1215,"o":"m 1215 0 l 868 0 l 868 174 l 694 174 l 694 347 l 521 347 l 521 521 l 347 521 l 347 694 l 174 694 l 174 1042 l 347 1042 l 347 868 l 521 868 l 521 694 l 694 694 l 694 521 l 868 521 l 868 347 l 1042 347 l 1042 174 l 1215 174 l 1215 0 z "},"]":{"ha":1389,"x_min":174,"x_max":868,"o":"m 868 0 l 174 0 l 174 174 l 521 174 l 521 868 l 174 868 l 174 1042 l 868 1042 l 868 0 z "},"^":{"ha":1389,"x_min":174,"x_max":1389,"o":"m 1389 347 l 1042 347 l 1042 521 l 868 521 l 868 694 l 694 694 l 694 521 l 521 521 l 521 347 l 174 347 l 174 521 l 347 521 l 347 694 l 521 694 l 521 868 l 694 868 l 694 1042 l 868 1042 l 868 868 l 1042 868 l 1042 694 l 1215 694 l 1215 521 l 1389 521 l 1389 347 z "},"_":{"ha":1389,"x_min":0,"x_max":1389,"o":"m 1389 0 l 0 0 l 0 174 l 1389 174 l 1389 0 z "},"`":{"ha":1389,"x_min":174,"x_max":1215,"o":"m 1215 347 l 1042 347 l 1042 174 l 868 174 l 868 0 l 521 0 l 521 174 l 347 174 l 347 347 l 174 347 l 174 694 l 347 694 l 347 868 l 521 868 l 521 1042 l 868 1042 l 868 868 l 1042 868 l 1042 694 l 1215 694 l 1215 347 z "},"a":{"ha":1389,"x_min":174,"x_max":1215,"o":"m 1215 0 l 347 0 l 347 174 l 174 174 l 174 347 l 347 347 l 347 521 l 868 521 l 868 694 l 347 694 l 347 868 l 1042 868 l 1042 694 l 1215 694 l 1215 0 m 868 174 l 868 347 l 521 347 l 521 174 l 868 174 z "},"b":{"ha":1389,"x_min":174,"x_max":1215,"o":"m 1215 174 l 1042 174 l 1042 0 l 174 0 l 174 1042 l 521 1042 l 521 694 l 1042 694 l 1042 521 l 1215 521 l 1215 174 m 868 174 l 868 521 l 521 521 l 521 174 l 868 174 z "},"c":{"ha":1389,"x_min":174,"x_max":1042,"o":"m 1042 0 l 347 0 l 347 174 l 174 174 l 174 694 l 347 694 l 347 868 l 1042 868 l 1042 694 l 521 694 l 521 174 l 1042 174 l 1042 0 z "},"d":{"ha":1389,"x_min":174,"x_max":1215,"o":"m 1215 0 l 347 0 l 347 174 l 174 174 l 174 521 l 347 521 l 347 694 l 868 694 l 868 1042 l 1215 1042 l 1215 0 m 868 174 l 868 521 l 521 521 l 521 174 l 868 174 z "},"e":{"ha":1389,"x_min":174,"x_max":1215,"o":"m 1215 347 l 521 347 l 521 174 l 1042 174 l 1042 0 l 347 0 l 347 174 l 174 174 l 174 694 l 347 694 l 347 868 l 1042 868 l 1042 694 l 1215 694 l 1215 347 m 868 521 l 868 694 l 521 694 l 521 521 l 868 521 z "},"f":{"ha":1389,"x_min":347,"x_max":1215,"o":"m 1215 521 l 868 521 l 868 0 l 521 0 l 521 521 l 347 521 l 347 694 l 521 694 l 521 868 l 694 868 l 694 1042 l 1215 1042 l 1215 868 l 868 868 l 868 694 l 1215 694 l 1215 521 z "},"g":{"ha":1389,"x_min":174,"x_max":1215,"o":"m 1215 0 l 1042 0 l 1042 -174 l 174 -174 l 174 0 l 868 0 l 868 174 l 347 174 l 347 347 l 174 347 l 174 694 l 347 694 l 347 868 l 1215 868 l 1215 0 m 868 347 l 868 694 l 521 694 l 521 347 l 868 347 z "},"h":{"ha":1389,"x_min":174,"x_max":1215,"o":"m 1215 0 l 868 0 l 868 521 l 521 521 l 521 0 l 174 0 l 174 1042 l 521 1042 l 521 694 l 1042 694 l 1042 521 l 1215 521 l 1215 0 z "},"i":{"ha":1389,"x_min":347,"x_max":1042,"o":"m 868 868 l 521 868 l 521 1042 l 868 1042 l 868 868 m 1042 0 l 347 0 l 347 174 l 521 174 l 521 521 l 347 521 l 347 694 l 868 694 l 868 174 l 1042 174 l 1042 0 z "},"j":{"ha":1389,"x_min":347,"x_max":1215,"o":"m 1215 868 l 868 868 l 868 1042 l 1215 1042 l 1215 868 m 1215 0 l 1042 0 l 1042 -174 l 347 -174 l 347 0 l 868 0 l 868 694 l 1215 694 l 1215 0 z "},"k":{"ha":1389,"x_min":174,"x_max":1215,"o":"m 1215 0 l 868 0 l 868 174 l 694 174 l 694 347 l 521 347 l 521 0 l 174 0 l 174 1042 l 521 1042 l 521 521 l 694 521 l 694 694 l 1042 694 l 1042 521 l 868 521 l 868 347 l 1042 347 l 1042 174 l 1215 174 l 1215 0 z "},"l":{"ha":1389,"x_min":347,"x_max":1042,"o":"m 1042 0 l 347 0 l 347 174 l 521 174 l 521 868 l 347 868 l 347 1042 l 868 1042 l 868 174 l 1042 174 l 1042 0 z "},"m":{"ha":1389,"x_min":174,"x_max":1389,"o":"m 1389 0 l 1042 0 l 1042 347 l 868 347 l 868 174 l 694 174 l 694 347 l 521 347 l 521 0 l 174 0 l 174 868 l 521 868 l 521 694 l 868 694 l 868 868 l 1215 868 l 1215 694 l 1389 694 l 1389 0 z "},"n":{"ha":1389,"x_min":174,"x_max":1215,"o":"m 1215 0 l 868 0 l 868 694 l 521 694 l 521 0 l 174 0 l 174 868 l 1042 868 l 1042 694 l 1215 694 l 1215 0 z "},"o":{"ha":1389,"x_min":174,"x_max":1215,"o":"m 1215 174 l 1042 174 l 1042 0 l 347 0 l 347 174 l 174 174 l 174 694 l 347 694 l 347 868 l 1042 868 l 1042 694 l 1215 694 l 1215 174 m 868 174 l 868 694 l 521 694 l 521 174 l 868 174 z "},"p":{"ha":1389,"x_min":174,"x_max":1215,"o":"m 1215 347 l 1042 347 l 1042 174 l 521 174 l 521 -174 l 174 -174 l 174 868 l 1042 868 l 1042 694 l 1215 694 l 1215 347 m 868 347 l 868 694 l 521 694 l 521 347 l 868 347 z "},"q":{"ha":1389,"x_min":174,"x_max":1215,"o":"m 1215 -174 l 868 -174 l 868 174 l 347 174 l 347 347 l 174 347 l 174 694 l 347 694 l 347 868 l 1215 868 l 1215 -174 m 868 347 l 868 694 l 521 694 l 521 347 l 868 347 z "},"r":{"ha":1389,"x_min":174,"x_max":1215,"o":"m 1215 521 l 868 521 l 868 694 l 521 694 l 521 0 l 174 0 l 174 868 l 1042 868 l 1042 694 l 1215 694 l 1215 521 z "},"s":{"ha":1389,"x_min":174,"x_max":1215,"o":"m 1215 174 l 1042 174 l 1042 0 l 174 0 l 174 174 l 868 174 l 868 347 l 347 347 l 347 521 l 174 521 l 174 694 l 347 694 l 347 868 l 1215 868 l 1215 694 l 521 694 l 521 521 l 1042 521 l 1042 347 l 1215 347 l 1215 174 z "},"t":{"ha":1389,"x_min":174,"x_max":1215,"o":"m 1215 0 l 694 0 l 694 174 l 521 174 l 521 694 l 174 694 l 174 868 l 521 868 l 521 1042 l 868 1042 l 868 868 l 1215 868 l 1215 694 l 868 694 l 868 174 l 1215 174 l 1215 0 z "},"u":{"ha":1389,"x_min":174,"x_max":1215,"o":"m 1215 0 l 347 0 l 347 174 l 174 174 l 174 868 l 521 868 l 521 174 l 868 174 l 868 868 l 1215 868 l 1215 0 z "},"v":{"ha":1389,"x_min":174,"x_max":1215,"o":"m 1215 347 l 1042 347 l 1042 174 l 868 174 l 868 0 l 521 0 l 521 174 l 347 174 l 347 347 l 174 347 l 174 868 l 521 868 l 521 347 l 868 347 l 868 868 l 1215 868 l 1215 347 z "},"w":{"ha":1389,"x_min":174,"x_max":1389,"o":"m 1389 347 l 1215 347 l 1215 0 l 868 0 l 868 174 l 694 174 l 694 0 l 347 0 l 347 347 l 174 347 l 174 868 l 521 868 l 521 521 l 694 521 l 694 694 l 868 694 l 868 521 l 1042 521 l 1042 868 l 1389 868 l 1389 347 z "},"x":{"ha":1389,"x_min":174,"x_max":1215,"o":"m 1215 0 l 868 0 l 868 174 l 521 174 l 521 0 l 174 0 l 174 174 l 347 174 l 347 347 l 521 347 l 521 521 l 347 521 l 347 694 l 174 694 l 174 868 l 521 868 l 521 694 l 868 694 l 868 868 l 1215 868 l 1215 694 l 1042 694 l 1042 521 l 868 521 l 868 347 l 1042 347 l 1042 174 l 1215 174 l 1215 0 z "},"y":{"ha":1389,"x_min":174,"x_max":1215,"o":"m 1215 174 l 1042 174 l 1042 0 l 868 0 l 868 -174 l 174 -174 l 174 0 l 694 0 l 694 174 l 347 174 l 347 347 l 174 347 l 174 868 l 521 868 l 521 347 l 868 347 l 868 868 l 1215 868 l 1215 174 z "},"z":{"ha":1389,"x_min":174,"x_max":1215,"o":"m 1215 0 l 174 0 l 174 174 l 347 174 l 347 347 l 521 347 l 521 521 l 694 521 l 694 694 l 174 694 l 174 868 l 1215 868 l 1215 694 l 1042 694 l 1042 521 l 868 521 l 868 347 l 694 347 l 694 174 l 1215 174 l 1215 0 z "},"{":{"ha":1389,"x_min":174,"x_max":1215,"o":"m 1215 347 l 868 347 l 868 174 l 1042 174 l 1042 0 l 347 0 l 347 174 l 521 174 l 521 347 l 174 347 l 174 694 l 347 694 l 347 868 l 521 868 l 521 1042 l 868 1042 l 868 868 l 1042 868 l 1042 694 l 1215 694 l 1215 347 z "},"|":{"ha":1389,"x_min":521,"x_max":868,"o":"m 868 -174 l 521 -174 l 521 1215 l 868 1215 l 868 -174 z "},"}":{"ha":1389,"x_min":174,"x_max":1215,"o":"m 1215 0 l 868 0 l 868 347 l 694 347 l 694 521 l 521 521 l 521 174 l 174 174 l 174 1042 l 1215 1042 l 1215 868 l 868 868 l 868 694 l 1042 694 l 1042 521 l 1215 521 l 1215 0 z "},"~":{"ha":1389,"x_min":174,"x_max":868,"o":"m 868 0 l 694 0 l 694 174 l 521 174 l 521 347 l 347 347 l 347 521 l 174 521 l 174 694 l 347 694 l 347 868 l 521 868 l 521 1042 l 694 1042 l 694 1215 l 868 1215 l 868 0 z "}," ":{"ha":1389,"x_min":0,"x_max":1389,"o":"m 1389 -174 l 0 -174 l 0 1215 l 1389 1215 l 1389 -174 z "},"¡":{"ha":1389,"x_min":0,"x_max":1389,"o":"m 1389 -174 l 0 -174 l 0 1215 l 1389 1215 l 1389 -174 m 868 347 l 868 1042 l 521 1042 l 521 347 l 868 347 m 868 0 l 868 174 l 521 174 l 521 0 l 868 0 z "},"¢":{"ha":1389,"x_min":0,"x_max":1389,"o":"m 1389 -174 l 0 -174 l 0 1215 l 1389 1215 l 1389 -174 m 1215 521 l 1215 1042 l 868 1042 l 868 521 l 1215 521 m 521 521 l 521 1042 l 174 1042 l 174 521 l 521 521 z "},"£":{"ha":1389,"x_min":0,"x_max":1389,"o":"m 1389 347 l 1215 347 l 1215 694 l 1389 694 l 1389 347 m 1389 868 l 1215 868 l 1215 1042 l 868 1042 l 868 868 l 521 868 l 521 1042 l 174 1042 l 174 868 l 0 868 l 0 1215 l 1389 1215 l 1389 868 m 868 347 l 521 347 l 521 694 l 868 694 l 868 347 m 1389 -174 l 0 -174 l 0 174 l 174 174 l 174 0 l 521 0 l 521 174 l 868 174 l 868 0 l 1215 0 l 1215 174 l 1389 174 l 1389 -174 m 174 347 l 0 347 l 0 694 l 174 694 l 174 347 z "},"¤":{"ha":1389,"x_min":0,"x_max":1389,"o":"m 1389 -174 l 0 -174 l 0 1215 l 521 1215 l 521 1042 l 347 1042 l 347 868 l 174 868 l 174 694 l 347 694 l 347 521 l 868 521 l 868 347 l 174 347 l 174 174 l 521 174 l 521 0 l 868 0 l 868 174 l 1042 174 l 1042 347 l 1215 347 l 1215 521 l 1042 521 l 1042 694 l 521 694 l 521 868 l 1215 868 l 1215 1042 l 868 1042 l 868 1215 l 1389 1215 l 1389 -174 z "},"¥":{"ha":1389,"x_min":0,"x_max":1389,"o":"m 1389 -174 l 0 -174 l 0 1215 l 1389 1215 l 1389 -174 m 521 694 l 521 1042 l 174 1042 l 174 694 l 521 694 m 1215 868 l 1215 1042 l 868 1042 l 868 868 l 694 868 l 694 694 l 521 694 l 521 521 l 347 521 l 347 347 l 174 347 l 174 0 l 347 0 l 347 174 l 521 174 l 521 347 l 694 347 l 694 521 l 868 521 l 868 694 l 1042 694 l 1042 868 l 1215 868 m 1215 0 l 1215 347 l 868 347 l 868 0 l 1215 0 z "},"¦":{"ha":1389,"x_min":0,"x_max":1389,"o":"m 1389 521 l 868 521 l 868 694 l 1042 694 l 1042 868 l 1215 868 l 1215 1042 l 1042 1042 l 1042 1215 l 1389 1215 l 1389 521 m 868 868 l 694 868 l 694 1042 l 868 1042 l 868 868 m 1389 174 l 1215 174 l 1215 347 l 1389 347 l 1389 174 m 1389 -174 l 0 -174 l 0 1215 l 521 1215 l 521 1042 l 347 1042 l 347 868 l 521 868 l 521 694 l 347 694 l 347 521 l 174 521 l 174 174 l 347 174 l 347 0 l 868 0 l 868 174 l 1042 174 l 1042 0 l 1389 0 l 1389 -174 m 868 174 l 521 174 l 521 521 l 694 521 l 694 347 l 868 347 l 868 174 z "},"§":{"ha":1389,"x_min":0,"x_max":1389,"o":"m 1389 -174 l 0 -174 l 0 1215 l 1389 1215 l 1389 -174 m 868 521 l 868 1042 l 521 1042 l 521 521 l 868 521 z "},"¨":{"ha":1389,"x_min":0,"x_max":1389,"o":"m 1389 -174 l 0 -174 l 0 1215 l 1389 1215 l 1389 -174 m 1215 0 l 1215 174 l 1042 174 l 1042 347 l 868 347 l 868 694 l 1042 694 l 1042 868 l 1215 868 l 1215 1042 l 694 1042 l 694 868 l 521 868 l 521 174 l 694 174 l 694 0 l 1215 0 z "},"©":{"ha":1389,"x_min":0,"x_max":1389,"o":"m 1389 -174 l 0 -174 l 0 1215 l 1389 1215 l 1389 -174 m 868 174 l 868 868 l 694 868 l 694 1042 l 174 1042 l 174 868 l 347 868 l 347 694 l 521 694 l 521 347 l 347 347 l 347 174 l 174 174 l 174 0 l 694 0 l 694 174 l 868 174 z "},"ª":{"ha":1389,"x_min":0,"x_max":1389,"o":"m 1389 694 l 1042 694 l 1042 868 l 1215 868 l 1215 1042 l 868 1042 l 868 868 l 521 868 l 521 1042 l 174 1042 l 174 868 l 347 868 l 347 694 l 0 694 l 0 1215 l 1389 1215 l 1389 694 m 1389 -174 l 0 -174 l 0 521 l 347 521 l 347 347 l 174 347 l 174 174 l 521 174 l 521 347 l 868 347 l 868 174 l 1215 174 l 1215 347 l 1042 347 l 1042 521 l 1389 521 l 1389 -174 z "},"«":{"ha":1389,"x_min":0,"x_max":1389,"o":"m 1389 -174 l 0 -174 l 0 1215 l 1389 1215 l 1389 -174 m 1215 521 l 1215 694 l 868 694 l 868 1042 l 521 1042 l 521 694 l 174 694 l 174 521 l 521 521 l 521 174 l 868 174 l 868 521 l 1215 521 z "},"¬":{"ha":1389,"x_min":0,"x_max":1389,"o":"m 1389 -174 l 694 -174 l 694 0 l 868 0 l 868 347 l 521 347 l 521 0 l 347 0 l 347 -174 l 0 -174 l 0 1215 l 1389 1215 l 1389 -174 z "},"­":{"ha":1389,"x_min":0,"x_max":1389,"o":"m 1389 -174 l 0 -174 l 0 1215 l 1389 1215 l 1389 -174 m 1215 521 l 1215 694 l 174 694 l 174 521 l 1215 521 z "},"®":{"ha":1389,"x_min":0,"x_max":1389,"o":"m 1389 -174 l 0 -174 l 0 1215 l 1389 1215 l 1389 -174 m 868 0 l 868 347 l 521 347 l 521 0 l 868 0 z "},"¯":{"ha":1389,"x_min":0,"x_max":1389,"o":"m 1389 -174 l 0 -174 l 0 1215 l 1389 1215 l 1389 -174 m 1215 868 l 1215 1042 l 868 1042 l 868 868 l 694 868 l 694 694 l 521 694 l 521 521 l 347 521 l 347 347 l 174 347 l 174 0 l 347 0 l 347 174 l 521 174 l 521 347 l 694 347 l 694 521 l 868 521 l 868 694 l 1042 694 l 1042 868 l 1215 868 z "},"°":{"ha":1389,"x_min":0,"x_max":1389,"o":"m 1389 -174 l 0 -174 l 0 1215 l 1389 1215 l 1389 -174 m 1215 174 l 1215 868 l 1042 868 l 1042 1042 l 347 1042 l 347 868 l 174 868 l 174 174 l 347 174 l 347 0 l 1042 0 l 1042 174 l 1215 174 m 868 174 l 521 174 l 521 347 l 694 347 l 694 521 l 521 521 l 521 868 l 868 868 l 868 694 l 694 694 l 694 521 l 868 521 l 868 174 z "},"±":{"ha":1389,"x_min":0,"x_max":1389,"o":"m 1389 -174 l 0 -174 l 0 1215 l 1389 1215 l 1389 -174 m 1215 0 l 1215 174 l 868 174 l 868 1042 l 521 1042 l 521 868 l 347 868 l 347 694 l 521 694 l 521 174 l 174 174 l 174 0 l 1215 0 z "},"²":{"ha":1389,"x_min":0,"x_max":1389,"o":"m 1389 -174 l 0 -174 l 0 1215 l 1389 1215 l 1389 -174 m 1215 0 l 1215 174 l 694 174 l 694 347 l 868 347 l 868 521 l 1042 521 l 1042 694 l 1215 694 l 1215 868 l 1042 868 l 1042 1042 l 347 1042 l 347 868 l 174 868 l 174 694 l 521 694 l 521 868 l 868 868 l 868 694 l 694 694 l 694 521 l 521 521 l 521 347 l 347 347 l 347 174 l 174 174 l 174 0 l 1215 0 z "},"³":{"ha":1389,"x_min":0,"x_max":1389,"o":"m 1389 -174 l 0 -174 l 0 1215 l 1389 1215 l 1389 -174 m 1215 174 l 1215 347 l 1042 347 l 1042 521 l 868 521 l 868 694 l 1042 694 l 1042 868 l 1215 868 l 1215 1042 l 174 1042 l 174 868 l 694 868 l 694 694 l 521 694 l 521 521 l 694 521 l 694 347 l 868 347 l 868 174 l 521 174 l 521 347 l 174 347 l 174 174 l 347 174 l 347 0 l 1042 0 l 1042 174 l 1215 174 z "},"´":{"ha":1389,"x_min":0,"x_max":1389,"o":"m 1389 -174 l 0 -174 l 0 1215 l 1389 1215 l 1389 -174 m 1215 174 l 1215 347 l 1042 347 l 1042 1042 l 694 1042 l 694 868 l 521 868 l 521 694 l 347 694 l 347 521 l 174 521 l 174 174 l 694 174 l 694 0 l 1042 0 l 1042 174 l 1215 174 m 694 347 l 521 347 l 521 521 l 694 521 l 694 347 z "},"µ":{"ha":1389,"x_min":0,"x_max":1389,"o":"m 1389 -174 l 0 -174 l 0 1215 l 1389 1215 l 1389 -174 m 1215 174 l 1215 521 l 1042 521 l 1042 694 l 521 694 l 521 868 l 1215 868 l 1215 1042 l 174 1042 l 174 521 l 868 521 l 868 174 l 521 174 l 521 347 l 174 347 l 174 174 l 347 174 l 347 0 l 1042 0 l 1042 174 l 1215 174 z "},"¶":{"ha":1389,"x_min":0,"x_max":1389,"o":"m 1389 -174 l 0 -174 l 0 1215 l 1389 1215 l 1389 -174 m 1215 174 l 1215 521 l 1042 521 l 1042 694 l 521 694 l 521 868 l 1042 868 l 1042 1042 l 347 1042 l 347 868 l 174 868 l 174 174 l 347 174 l 347 0 l 1042 0 l 1042 174 l 1215 174 m 868 174 l 521 174 l 521 521 l 868 521 l 868 174 z "},"·":{"ha":1389,"x_min":0,"x_max":1389,"o":"m 1389 -174 l 0 -174 l 0 1215 l 1389 1215 l 1389 -174 m 1215 694 l 1215 1042 l 174 1042 l 174 868 l 868 868 l 868 694 l 694 694 l 694 521 l 521 521 l 521 347 l 347 347 l 347 0 l 694 0 l 694 347 l 868 347 l 868 521 l 1042 521 l 1042 694 l 1215 694 z "},"¸":{"ha":1389,"x_min":0,"x_max":1389,"o":"m 1389 -174 l 0 -174 l 0 1215 l 1389 1215 l 1389 -174 m 1215 174 l 1215 521 l 1042 521 l 1042 694 l 1215 694 l 1215 868 l 1042 868 l 1042 1042 l 347 1042 l 347 868 l 174 868 l 174 694 l 347 694 l 347 521 l 174 521 l 174 174 l 347 174 l 347 0 l 1042 0 l 1042 174 l 1215 174 m 868 694 l 521 694 l 521 868 l 868 868 l 868 694 m 868 174 l 521 174 l 521 521 l 868 521 l 868 174 z "},"¹":{"ha":1389,"x_min":0,"x_max":1389,"o":"m 1389 -174 l 0 -174 l 0 1215 l 1389 1215 l 1389 -174 m 1215 347 l 1215 868 l 1042 868 l 1042 1042 l 347 1042 l 347 868 l 174 868 l 174 694 l 347 694 l 347 521 l 868 521 l 868 347 l 694 347 l 694 174 l 347 174 l 347 0 l 868 0 l 868 174 l 1042 174 l 1042 347 l 1215 347 m 868 694 l 521 694 l 521 868 l 868 868 l 868 694 z "},"º":{"ha":1389,"x_min":0,"x_max":1389,"o":"m 1389 -174 l 0 -174 l 0 1215 l 1389 1215 l 1389 -174 m 868 521 l 868 868 l 521 868 l 521 521 l 868 521 m 868 0 l 868 347 l 521 347 l 521 0 l 868 0 z "},"»":{"ha":1389,"x_min":0,"x_max":1389,"o":"m 1389 -174 l 694 -174 l 694 0 l 868 0 l 868 347 l 521 347 l 521 0 l 347 0 l 347 -174 l 0 -174 l 0 1215 l 1389 1215 l 1389 -174 m 868 521 l 868 868 l 521 868 l 521 521 l 868 521 z "},"¼":{"ha":1389,"x_min":0,"x_max":1389,"o":"m 1389 -174 l 0 -174 l 0 1215 l 868 1215 l 868 1042 l 694 1042 l 694 868 l 521 868 l 521 694 l 347 694 l 347 521 l 521 521 l 521 347 l 694 347 l 694 174 l 868 174 l 868 0 l 1215 0 l 1215 174 l 1042 174 l 1042 347 l 868 347 l 868 521 l 694 521 l 694 694 l 868 694 l 868 868 l 1042 868 l 1042 1042 l 1215 1042 l 1215 1215 l 1389 1215 l 1389 -174 z "},"½":{"ha":1389,"x_min":0,"x_max":1389,"o":"m 1389 -174 l 0 -174 l 0 1215 l 1389 1215 l 1389 -174 m 1215 694 l 1215 868 l 174 868 l 174 694 l 1215 694 m 1215 174 l 1215 347 l 174 347 l 174 174 l 1215 174 z "},"¾":{"ha":1389,"x_min":0,"x_max":1389,"o":"m 1389 -174 l 0 -174 l 0 1215 l 174 1215 l 174 1042 l 347 1042 l 347 868 l 521 868 l 521 694 l 694 694 l 694 521 l 521 521 l 521 347 l 347 347 l 347 174 l 174 174 l 174 0 l 521 0 l 521 174 l 694 174 l 694 347 l 868 347 l 868 521 l 1042 521 l 1042 694 l 868 694 l 868 868 l 694 868 l 694 1042 l 521 1042 l 521 1215 l 1389 1215 l 1389 -174 z "},"¿":{"ha":1389,"x_min":0,"x_max":1389,"o":"m 1389 -174 l 0 -174 l 0 1215 l 1389 1215 l 1389 -174 m 1215 694 l 1215 868 l 1042 868 l 1042 1042 l 347 1042 l 347 868 l 174 868 l 174 694 l 521 694 l 521 868 l 868 868 l 868 694 l 694 694 l 694 521 l 521 521 l 521 347 l 868 347 l 868 521 l 1042 521 l 1042 694 l 1215 694 m 868 0 l 868 174 l 521 174 l 521 0 l 868 0 z "},"À":{"ha":1389,"x_min":0,"x_max":1389,"o":"m 1389 -174 l 0 -174 l 0 1215 l 1389 1215 l 1389 -174 m 1215 0 l 1215 174 l 521 174 l 521 868 l 868 868 l 868 694 l 694 694 l 694 347 l 1215 347 l 1215 868 l 1042 868 l 1042 1042 l 347 1042 l 347 868 l 174 868 l 174 174 l 347 174 l 347 0 l 1215 0 z "},"Á":{"ha":1389,"x_min":0,"x_max":1389,"o":"m 1389 -174 l 0 -174 l 0 1215 l 1389 1215 l 1389 -174 m 1215 0 l 1215 694 l 1042 694 l 1042 868 l 868 868 l 868 1042 l 521 1042 l 521 868 l 347 868 l 347 694 l 174 694 l 174 0 l 521 0 l 521 174 l 868 174 l 868 0 l 1215 0 m 868 347 l 521 347 l 521 694 l 868 694 l 868 347 z "},"Â":{"ha":1389,"x_min":0,"x_max":1389,"o":"m 1389 -174 l 0 -174 l 0 1215 l 1389 1215 l 1389 -174 m 1215 174 l 1215 521 l 1042 521 l 1042 694 l 1215 694 l 1215 868 l 1042 868 l 1042 1042 l 174 1042 l 174 0 l 1042 0 l 1042 174 l 1215 174 m 868 694 l 521 694 l 521 868 l 868 868 l 868 694 m 868 174 l 521 174 l 521 521 l 868 521 l 868 174 z "},"Ã":{"ha":1389,"x_min":0,"x_max":1389,"o":"m 1389 -174 l 0 -174 l 0 1215 l 1389 1215 l 1389 -174 m 1215 174 l 1215 347 l 868 347 l 868 174 l 521 174 l 521 868 l 868 868 l 868 694 l 1215 694 l 1215 868 l 1042 868 l 1042 1042 l 347 1042 l 347 868 l 174 868 l 174 174 l 347 174 l 347 0 l 1042 0 l 1042 174 l 1215 174 z "},"Ä":{"ha":1389,"x_min":0,"x_max":1389,"o":"m 1389 -174 l 0 -174 l 0 1215 l 1389 1215 l 1389 -174 m 1215 347 l 1215 694 l 1042 694 l 1042 868 l 868 868 l 868 1042 l 174 1042 l 174 0 l 868 0 l 868 174 l 1042 174 l 1042 347 l 1215 347 m 868 347 l 694 347 l 694 174 l 521 174 l 521 868 l 694 868 l 694 694 l 868 694 l 868 347 z "},"Å":{"ha":1389,"x_min":0,"x_max":1389,"o":"m 1389 -174 l 0 -174 l 0 1215 l 1389 1215 l 1389 -174 m 1215 0 l 1215 174 l 521 174 l 521 521 l 1042 521 l 1042 694 l 521 694 l 521 868 l 1215 868 l 1215 1042 l 174 1042 l 174 0 l 1215 0 z "},"Æ":{"ha":1389,"x_min":0,"x_max":1389,"o":"m 1389 -174 l 0 -174 l 0 1215 l 1389 1215 l 1389 -174 m 1215 868 l 1215 1042 l 174 1042 l 174 0 l 521 0 l 521 521 l 1042 521 l 1042 694 l 521 694 l 521 868 l 1215 868 z "},"Ç":{"ha":1389,"x_min":0,"x_max":1389,"o":"m 1389 -174 l 0 -174 l 0 1215 l 1389 1215 l 1389 -174 m 1215 0 l 1215 521 l 694 521 l 694 347 l 868 347 l 868 174 l 521 174 l 521 868 l 1215 868 l 1215 1042 l 347 1042 l 347 868 l 174 868 l 174 174 l 347 174 l 347 0 l 1215 0 z "},"È":{"ha":1389,"x_min":0,"x_max":1389,"o":"m 1389 -174 l 0 -174 l 0 1215 l 1389 1215 l 1389 -174 m 1215 0 l 1215 1042 l 868 1042 l 868 694 l 521 694 l 521 1042 l 174 1042 l 174 0 l 521 0 l 521 521 l 868 521 l 868 0 l 1215 0 z "},"É":{"ha":1389,"x_min":0,"x_max":1389,"o":"m 1389 -174 l 0 -174 l 0 1215 l 1389 1215 l 1389 -174 m 1215 0 l 1215 174 l 868 174 l 868 868 l 1215 868 l 1215 1042 l 174 1042 l 174 868 l 521 868 l 521 174 l 174 174 l 174 0 l 1215 0 z "},"Ê":{"ha":1389,"x_min":0,"x_max":1389,"o":"m 1389 -174 l 0 -174 l 0 1215 l 1389 1215 l 1389 -174 m 1215 174 l 1215 1042 l 694 1042 l 694 868 l 868 868 l 868 174 l 521 174 l 521 347 l 174 347 l 174 174 l 347 174 l 347 0 l 1042 0 l 1042 174 l 1215 174 z "},"Ë":{"ha":1389,"x_min":0,"x_max":1389,"o":"m 1389 -174 l 0 -174 l 0 1215 l 1389 1215 l 1389 -174 m 1215 0 l 1215 174 l 1042 174 l 1042 347 l 868 347 l 868 694 l 1042 694 l 1042 868 l 1215 868 l 1215 1042 l 868 1042 l 868 868 l 694 868 l 694 694 l 521 694 l 521 1042 l 174 1042 l 174 0 l 521 0 l 521 347 l 694 347 l 694 174 l 868 174 l 868 0 l 1215 0 z "},"Ì":{"ha":1389,"x_min":0,"x_max":1389,"o":"m 1389 -174 l 0 -174 l 0 1215 l 1389 1215 l 1389 -174 m 1215 0 l 1215 174 l 521 174 l 521 1042 l 174 1042 l 174 0 l 1215 0 z "},"Í":{"ha":1389,"x_min":0,"x_max":1389,"o":"m 1389 -174 l 0 -174 l 0 1215 l 1389 1215 l 1389 1042 l 1042 1042 l 1042 868 l 868 868 l 868 694 l 694 694 l 694 868 l 521 868 l 521 1042 l 174 1042 l 174 0 l 521 0 l 521 521 l 694 521 l 694 347 l 868 347 l 868 521 l 1042 521 l 1042 0 l 1389 0 l 1389 -174 z "},"Î":{"ha":1389,"x_min":0,"x_max":1389,"o":"m 1389 -174 l 0 -174 l 0 1215 l 1389 1215 l 1389 -174 m 1215 0 l 1215 1042 l 868 1042 l 868 694 l 694 694 l 694 868 l 521 868 l 521 1042 l 174 1042 l 174 0 l 521 0 l 521 347 l 694 347 l 694 174 l 868 174 l 868 0 l 1215 0 z "},"Ï":{"ha":1389,"x_min":0,"x_max":1389,"o":"m 1389 -174 l 0 -174 l 0 1215 l 1389 1215 l 1389 -174 m 1215 174 l 1215 868 l 1042 868 l 1042 1042 l 347 1042 l 347 868 l 174 868 l 174 174 l 347 174 l 347 0 l 1042 0 l 1042 174 l 1215 174 m 868 174 l 521 174 l 521 868 l 868 868 l 868 174 z "},"Ð":{"ha":1389,"x_min":0,"x_max":1389,"o":"m 1389 -174 l 0 -174 l 0 1215 l 1389 1215 l 1389 -174 m 1215 521 l 1215 868 l 1042 868 l 1042 1042 l 174 1042 l 174 0 l 521 0 l 521 347 l 1042 347 l 1042 521 l 1215 521 m 868 521 l 521 521 l 521 868 l 868 868 l 868 521 z "},"Ñ":{"ha":1389,"x_min":0,"x_max":1389,"o":"m 1389 -174 l 0 -174 l 0 1215 l 1389 1215 l 1389 -174 m 1215 0 l 1215 174 l 1042 174 l 1042 347 l 1215 347 l 1215 868 l 1042 868 l 1042 1042 l 347 1042 l 347 868 l 174 868 l 174 174 l 347 174 l 347 0 l 694 0 l 694 174 l 521 174 l 521 868 l 868 868 l 868 347 l 694 347 l 694 174 l 868 174 l 868 0 l 1215 0 z "},"Ò":{"ha":1389,"x_min":0,"x_max":1389,"o":"m 1389 -174 l 0 -174 l 0 1215 l 1389 1215 l 1389 -174 m 1215 0 l 1215 174 l 1042 174 l 1042 521 l 1215 521 l 1215 868 l 1042 868 l 1042 1042 l 174 1042 l 174 0 l 521 0 l 521 347 l 694 347 l 694 174 l 868 174 l 868 0 l 1215 0 m 868 521 l 521 521 l 521 868 l 868 868 l 868 521 z "},"Ó":{"ha":1389,"x_min":0,"x_max":1389,"o":"m 1389 -174 l 0 -174 l 0 1215 l 1389 1215 l 1389 -174 m 1215 174 l 1215 521 l 1042 521 l 1042 694 l 521 694 l 521 868 l 1042 868 l 1042 1042 l 347 1042 l 347 868 l 174 868 l 174 694 l 347 694 l 347 521 l 868 521 l 868 174 l 347 174 l 347 0 l 1042 0 l 1042 174 l 1215 174 z "},"Ô":{"ha":1389,"x_min":0,"x_max":1389,"o":"m 1389 -174 l 0 -174 l 0 1215 l 1389 1215 l 1389 -174 m 1215 868 l 1215 1042 l 174 1042 l 174 868 l 521 868 l 521 0 l 868 0 l 868 868 l 1215 868 z "},"Õ":{"ha":1389,"x_min":0,"x_max":1389,"o":"m 1389 -174 l 0 -174 l 0 1215 l 1389 1215 l 1389 -174 m 1215 0 l 1215 1042 l 868 1042 l 868 174 l 521 174 l 521 1042 l 174 1042 l 174 0 l 1215 0 z "},"Ö":{"ha":1389,"x_min":0,"x_max":1389,"o":"m 1389 -174 l 0 -174 l 0 1215 l 1389 1215 l 1389 -174 m 1215 347 l 1215 1042 l 868 1042 l 868 347 l 521 347 l 521 1042 l 174 1042 l 174 347 l 347 347 l 347 174 l 521 174 l 521 0 l 868 0 l 868 174 l 1042 174 l 1042 347 l 1215 347 z "},"×":{"ha":1389,"x_min":0,"x_max":1389,"o":"m 1389 -174 l 0 -174 l 0 1215 l 1389 1215 l 1389 1042 l 1042 1042 l 1042 521 l 868 521 l 868 694 l 694 694 l 694 521 l 521 521 l 521 1042 l 174 1042 l 174 0 l 521 0 l 521 174 l 694 174 l 694 347 l 868 347 l 868 174 l 1042 174 l 1042 0 l 1389 0 l 1389 -174 z "},"Ø":{"ha":1389,"x_min":0,"x_max":1389,"o":"m 1389 -174 l 0 -174 l 0 1215 l 1389 1215 l 1389 -174 m 1215 0 l 1215 347 l 1042 347 l 1042 694 l 1215 694 l 1215 1042 l 868 1042 l 868 694 l 521 694 l 521 1042 l 174 1042 l 174 694 l 347 694 l 347 347 l 174 347 l 174 0 l 521 0 l 521 347 l 868 347 l 868 0 l 1215 0 z "},"Ù":{"ha":1389,"x_min":0,"x_max":1389,"o":"m 1389 -174 l 0 -174 l 0 1215 l 1389 1215 l 1389 -174 m 1215 694 l 1215 1042 l 868 1042 l 868 694 l 521 694 l 521 1042 l 174 1042 l 174 694 l 347 694 l 347 521 l 521 521 l 521 0 l 868 0 l 868 521 l 1042 521 l 1042 694 l 1215 694 z "},"Ú":{"ha":1389,"x_min":0,"x_max":1389,"o":"m 1389 -174 l 0 -174 l 0 1215 l 1389 1215 l 1389 -174 m 1215 0 l 1215 174 l 521 174 l 521 347 l 694 347 l 694 521 l 868 521 l 868 694 l 1042 694 l 1042 868 l 1215 868 l 1215 1042 l 174 1042 l 174 868 l 694 868 l 694 694 l 521 694 l 521 521 l 347 521 l 347 347 l 174 347 l 174 0 l 1215 0 z "},"Û":{"ha":1389,"x_min":0,"x_max":1389,"o":"m 1389 -174 l 0 -174 l 0 1215 l 1389 1215 l 1389 -174 m 1215 0 l 1215 174 l 868 174 l 868 868 l 1215 868 l 1215 1042 l 521 1042 l 521 0 l 1215 0 z "},"Ü":{"ha":1389,"x_min":0,"x_max":1389,"o":"m 1389 -174 l 0 -174 l 0 1215 l 1389 1215 l 1389 -174 m 1215 0 l 1215 174 l 1042 174 l 1042 347 l 868 347 l 868 521 l 694 521 l 694 694 l 521 694 l 521 868 l 347 868 l 347 1042 l 174 1042 l 174 694 l 347 694 l 347 521 l 521 521 l 521 347 l 694 347 l 694 174 l 868 174 l 868 0 l 1215 0 z "},"Ý":{"ha":1389,"x_min":0,"x_max":1389,"o":"m 1389 -174 l 0 -174 l 0 1215 l 1389 1215 l 1389 -174 m 868 0 l 868 1042 l 174 1042 l 174 868 l 521 868 l 521 174 l 174 174 l 174 0 l 868 0 z "},"Þ":{"ha":1389,"x_min":0,"x_max":1389,"o":"m 1389 -174 l 0 -174 l 0 1215 l 1389 1215 l 1389 521 l 1215 521 l 1215 694 l 1042 694 l 1042 868 l 868 868 l 868 1042 l 694 1042 l 694 868 l 521 868 l 521 694 l 347 694 l 347 521 l 174 521 l 174 347 l 521 347 l 521 521 l 694 521 l 694 694 l 868 694 l 868 521 l 1042 521 l 1042 347 l 1389 347 l 1389 -174 z "},"ß":{"ha":1389,"x_min":0,"x_max":1389,"o":"m 1389 174 l 0 174 l 0 1215 l 1389 1215 l 1389 174 m 1389 -174 l 0 -174 l 0 0 l 1389 0 l 1389 -174 z "},"à":{"ha":1389,"x_min":0,"x_max":1389,"o":"m 1389 -174 l 0 -174 l 0 1215 l 1389 1215 l 1389 -174 m 1215 347 l 1215 694 l 1042 694 l 1042 868 l 868 868 l 868 1042 l 521 1042 l 521 868 l 347 868 l 347 694 l 174 694 l 174 347 l 347 347 l 347 174 l 521 174 l 521 0 l 868 0 l 868 174 l 1042 174 l 1042 347 l 1215 347 z "},"á":{"ha":1389,"x_min":0,"x_max":1389,"o":"m 1389 -174 l 0 -174 l 0 1215 l 1389 1215 l 1389 -174 m 1215 0 l 1215 694 l 1042 694 l 1042 868 l 347 868 l 347 694 l 868 694 l 868 521 l 347 521 l 347 347 l 174 347 l 174 174 l 347 174 l 347 0 l 1215 0 m 868 174 l 521 174 l 521 347 l 868 347 l 868 174 z "},"â":{"ha":1389,"x_min":0,"x_max":1389,"o":"m 1389 -174 l 0 -174 l 0 1215 l 1389 1215 l 1389 -174 m 1215 174 l 1215 521 l 1042 521 l 1042 694 l 521 694 l 521 1042 l 174 1042 l 174 0 l 1042 0 l 1042 174 l 1215 174 m 868 174 l 521 174 l 521 521 l 868 521 l 868 174 z "},"ã":{"ha":1389,"x_min":0,"x_max":1389,"o":"m 1389 -174 l 0 -174 l 0 1215 l 1389 1215 l 1389 -174 m 1042 0 l 1042 174 l 521 174 l 521 694 l 1042 694 l 1042 868 l 347 868 l 347 694 l 174 694 l 174 174 l 347 174 l 347 0 l 1042 0 z "},"ä":{"ha":1389,"x_min":0,"x_max":1389,"o":"m 1389 -174 l 0 -174 l 0 1215 l 1389 1215 l 1389 -174 m 1215 0 l 1215 1042 l 868 1042 l 868 694 l 347 694 l 347 521 l 174 521 l 174 174 l 347 174 l 347 0 l 1215 0 m 868 174 l 521 174 l 521 521 l 868 521 l 868 174 z "},"å":{"ha":1389,"x_min":0,"x_max":1389,"o":"m 1389 -174 l 0 -174 l 0 1215 l 1389 1215 l 1389 -174 m 1215 347 l 1215 694 l 1042 694 l 1042 868 l 347 868 l 347 694 l 174 694 l 174 174 l 347 174 l 347 0 l 1042 0 l 1042 174 l 521 174 l 521 347 l 1215 347 m 868 521 l 521 521 l 521 694 l 868 694 l 868 521 z "},"æ":{"ha":1389,"x_min":0,"x_max":1389,"o":"m 1389 -174 l 0 -174 l 0 1215 l 1389 1215 l 1389 -174 m 1215 521 l 1215 694 l 868 694 l 868 868 l 1215 868 l 1215 1042 l 694 1042 l 694 868 l 521 868 l 521 694 l 347 694 l 347 521 l 521 521 l 521 0 l 868 0 l 868 521 l 1215 521 z "},"ç":{"ha":1389,"x_min":0,"x_max":1389,"o":"m 1389 -174 l 1042 -174 l 1042 0 l 1215 0 l 1215 868 l 347 868 l 347 694 l 174 694 l 174 347 l 347 347 l 347 174 l 868 174 l 868 0 l 174 0 l 174 -174 l 0 -174 l 0 1215 l 1389 1215 l 1389 -174 m 868 347 l 521 347 l 521 694 l 868 694 l 868 347 z "},"è":{"ha":1389,"x_min":0,"x_max":1389,"o":"m 1389 -174 l 0 -174 l 0 1215 l 1389 1215 l 1389 -174 m 1215 0 l 1215 521 l 1042 521 l 1042 694 l 521 694 l 521 1042 l 174 1042 l 174 0 l 521 0 l 521 521 l 868 521 l 868 0 l 1215 0 z "},"é":{"ha":1389,"x_min":0,"x_max":1389,"o":"m 1389 -174 l 0 -174 l 0 1215 l 1389 1215 l 1389 -174 m 868 868 l 868 1042 l 521 1042 l 521 868 l 868 868 m 1042 0 l 1042 174 l 868 174 l 868 694 l 347 694 l 347 521 l 521 521 l 521 174 l 347 174 l 347 0 l 1042 0 z "},"ê":{"ha":1389,"x_min":0,"x_max":1389,"o":"m 1389 -174 l 1042 -174 l 1042 0 l 1215 0 l 1215 694 l 868 694 l 868 0 l 347 0 l 347 -174 l 0 -174 l 0 1215 l 1389 1215 l 1389 -174 m 1215 868 l 1215 1042 l 868 1042 l 868 868 l 1215 868 z "},"ë":{"ha":1389,"x_min":0,"x_max":1389,"o":"m 1389 -174 l 0 -174 l 0 1215 l 1389 1215 l 1389 -174 m 1215 0 l 1215 174 l 1042 174 l 1042 347 l 868 347 l 868 521 l 1042 521 l 1042 694 l 694 694 l 694 521 l 521 521 l 521 1042 l 174 1042 l 174 0 l 521 0 l 521 347 l 694 347 l 694 174 l 868 174 l 868 0 l 1215 0 z "},"ì":{"ha":1389,"x_min":0,"x_max":1389,"o":"m 1389 -174 l 0 -174 l 0 1215 l 1389 1215 l 1389 -174 m 1042 0 l 1042 174 l 868 174 l 868 1042 l 347 1042 l 347 868 l 521 868 l 521 174 l 347 174 l 347 0 l 1042 0 z "},"í":{"ha":1389,"x_min":0,"x_max":1389,"o":"m 1389 -174 l 0 -174 l 0 1215 l 1389 1215 l 1389 694 l 1215 694 l 1215 868 l 868 868 l 868 694 l 521 694 l 521 868 l 174 868 l 174 0 l 521 0 l 521 347 l 694 347 l 694 174 l 868 174 l 868 347 l 1042 347 l 1042 0 l 1389 0 l 1389 -174 z "},"î":{"ha":1389,"x_min":0,"x_max":1389,"o":"m 1389 -174 l 0 -174 l 0 1215 l 1389 1215 l 1389 -174 m 1215 0 l 1215 694 l 1042 694 l 1042 868 l 174 868 l 174 0 l 521 0 l 521 694 l 868 694 l 868 0 l 1215 0 z "},"ï":{"ha":1389,"x_min":0,"x_max":1389,"o":"m 1389 -174 l 0 -174 l 0 1215 l 1389 1215 l 1389 -174 m 1215 174 l 1215 694 l 1042 694 l 1042 868 l 347 868 l 347 694 l 174 694 l 174 174 l 347 174 l 347 0 l 1042 0 l 1042 174 l 1215 174 m 868 174 l 521 174 l 521 694 l 868 694 l 868 174 z "},"ð":{"ha":1389,"x_min":0,"x_max":1389,"o":"m 1389 -174 l 521 -174 l 521 174 l 1042 174 l 1042 347 l 1215 347 l 1215 694 l 1042 694 l 1042 868 l 174 868 l 174 -174 l 0 -174 l 0 1215 l 1389 1215 l 1389 -174 m 868 347 l 521 347 l 521 694 l 868 694 l 868 347 z "},"ñ":{"ha":1389,"x_min":0,"x_max":1389,"o":"m 1389 -174 l 1215 -174 l 1215 868 l 347 868 l 347 694 l 174 694 l 174 347 l 347 347 l 347 174 l 868 174 l 868 -174 l 0 -174 l 0 1215 l 1389 1215 l 1389 -174 m 868 347 l 521 347 l 521 694 l 868 694 l 868 347 z "},"ò":{"ha":1389,"x_min":0,"x_max":1389,"o":"m 1389 -174 l 0 -174 l 0 1215 l 1389 1215 l 1389 -174 m 1215 521 l 1215 694 l 1042 694 l 1042 868 l 174 868 l 174 0 l 521 0 l 521 694 l 868 694 l 868 521 l 1215 521 z "},"ó":{"ha":1389,"x_min":0,"x_max":1389,"o":"m 1389 -174 l 0 -174 l 0 1215 l 1389 1215 l 1389 -174 m 1215 174 l 1215 347 l 1042 347 l 1042 521 l 521 521 l 521 694 l 1215 694 l 1215 868 l 347 868 l 347 694 l 174 694 l 174 521 l 347 521 l 347 347 l 868 347 l 868 174 l 174 174 l 174 0 l 1042 0 l 1042 174 l 1215 174 z "},"ô":{"ha":1389,"x_min":0,"x_max":1389,"o":"m 1389 -174 l 0 -174 l 0 1215 l 1389 1215 l 1389 -174 m 1215 0 l 1215 174 l 868 174 l 868 694 l 1215 694 l 1215 868 l 868 868 l 868 1042 l 521 1042 l 521 868 l 174 868 l 174 694 l 521 694 l 521 174 l 694 174 l 694 0 l 1215 0 z "},"õ":{"ha":1389,"x_min":0,"x_max":1389,"o":"m 1389 -174 l 0 -174 l 0 1215 l 1389 1215 l 1389 -174 m 1215 0 l 1215 868 l 868 868 l 868 174 l 521 174 l 521 868 l 174 868 l 174 174 l 347 174 l 347 0 l 1215 0 z "},"ö":{"ha":1389,"x_min":0,"x_max":1389,"o":"m 1389 -174 l 0 -174 l 0 1215 l 1389 1215 l 1389 -174 m 1215 347 l 1215 868 l 868 868 l 868 347 l 521 347 l 521 868 l 174 868 l 174 347 l 347 347 l 347 174 l 521 174 l 521 0 l 868 0 l 868 174 l 1042 174 l 1042 347 l 1215 347 z "},"÷":{"ha":1389,"x_min":0,"x_max":1389,"o":"m 1389 -174 l 0 -174 l 0 1215 l 1389 1215 l 1389 868 l 1042 868 l 1042 521 l 868 521 l 868 694 l 694 694 l 694 521 l 521 521 l 521 868 l 174 868 l 174 347 l 347 347 l 347 0 l 694 0 l 694 174 l 868 174 l 868 0 l 1215 0 l 1215 347 l 1389 347 l 1389 -174 z "},"ø":{"ha":1389,"x_min":0,"x_max":1389,"o":"m 1389 -174 l 0 -174 l 0 1215 l 1389 1215 l 1389 -174 m 1215 0 l 1215 174 l 1042 174 l 1042 347 l 868 347 l 868 521 l 1042 521 l 1042 694 l 1215 694 l 1215 868 l 868 868 l 868 694 l 521 694 l 521 868 l 174 868 l 174 694 l 347 694 l 347 521 l 521 521 l 521 347 l 347 347 l 347 174 l 174 174 l 174 0 l 521 0 l 521 174 l 868 174 l 868 0 l 1215 0 z "},"ù":{"ha":1389,"x_min":0,"x_max":1389,"o":"m 1389 -174 l 868 -174 l 868 0 l 1042 0 l 1042 174 l 1215 174 l 1215 868 l 868 868 l 868 347 l 521 347 l 521 868 l 174 868 l 174 347 l 347 347 l 347 174 l 694 174 l 694 0 l 174 0 l 174 -174 l 0 -174 l 0 1215 l 1389 1215 l 1389 -174 z "},"ú":{"ha":1389,"x_min":0,"x_max":1389,"o":"m 1389 -174 l 0 -174 l 0 1215 l 1389 1215 l 1389 -174 m 1215 0 l 1215 174 l 694 174 l 694 347 l 868 347 l 868 521 l 1042 521 l 1042 694 l 1215 694 l 1215 868 l 174 868 l 174 694 l 694 694 l 694 521 l 521 521 l 521 347 l 347 347 l 347 174 l 174 174 l 174 0 l 1215 0 z "},"û":{"ha":1389,"x_min":0,"x_max":1389,"o":"m 1389 -174 l 0 -174 l 0 1215 l 1389 1215 l 1389 -174 m 1215 347 l 1215 694 l 1042 694 l 1042 868 l 868 868 l 868 1042 l 521 1042 l 521 868 l 347 868 l 347 694 l 174 694 l 174 347 l 521 347 l 521 174 l 347 174 l 347 0 l 1042 0 l 1042 174 l 868 174 l 868 347 l 1215 347 z "},"ü":{"ha":1389,"x_min":0,"x_max":1389,"o":"m 1389 -174 l 868 -174 l 868 1215 l 1389 1215 l 1389 -174 m 521 -174 l 0 -174 l 0 1215 l 521 1215 l 521 -174 z "},"ý":{"ha":1389,"x_min":0,"x_max":1389,"o":"m 1389 -174 l 0 -174 l 0 1215 l 1389 1215 l 1389 -174 m 1215 0 l 1215 521 l 1042 521 l 1042 694 l 868 694 l 868 868 l 1215 868 l 1215 1042 l 174 1042 l 174 174 l 521 174 l 521 521 l 694 521 l 694 347 l 868 347 l 868 0 l 1215 0 z "},"þ":{"ha":1389,"x_min":0,"x_max":1389,"o":"m 1389 -174 l 0 -174 l 0 1215 l 694 1215 l 694 1042 l 521 1042 l 521 868 l 347 868 l 347 694 l 174 694 l 174 521 l 347 521 l 347 347 l 521 347 l 521 174 l 694 174 l 694 0 l 868 0 l 868 1215 l 1389 1215 l 1389 -174 z "},"ÿ":{"ha":1389,"x_min":0,"x_max":1389,"o":"m 1389 -174 l 0 -174 l 0 1215 l 521 1215 l 521 0 l 694 0 l 694 174 l 868 174 l 868 347 l 1042 347 l 1042 521 l 1215 521 l 1215 694 l 1042 694 l 1042 868 l 868 868 l 868 1042 l 694 1042 l 694 1215 l 1389 1215 l 1389 -174 z "},"Œ":{"ha":1389,"x_min":0,"x_max":1389,"o":"m 1389 -174 l 0 -174 l 0 521 l 694 521 l 694 1215 l 1389 1215 l 1389 -174 z "},"œ":{"ha":1389,"x_min":0,"x_max":1389,"o":"m 1389 -174 l 0 -174 l 0 1215 l 1389 1215 l 1389 -174 m 1215 521 l 1215 694 l 1042 694 l 1042 868 l 868 868 l 868 1042 l 521 1042 l 521 868 l 347 868 l 347 694 l 174 694 l 174 521 l 521 521 l 521 0 l 868 0 l 868 521 l 1215 521 z "},"Š":{"ha":1389,"x_min":174,"x_max":1389,"o":"m 1389 0 l 1215 0 l 1215 174 l 1042 174 l 1042 347 l 868 347 l 868 521 l 694 521 l 694 694 l 521 694 l 521 868 l 347 868 l 347 1042 l 174 1042 l 174 1215 l 1389 1215 l 1389 0 z "},"š":{"ha":1389,"x_min":0,"x_max":1389,"o":"m 1389 694 l 868 694 l 868 1215 l 1389 1215 l 1389 694 m 1389 -174 l 0 -174 l 0 1215 l 521 1215 l 521 347 l 1389 347 l 1389 -174 z "},"Ÿ":{"ha":1389,"x_min":0,"x_max":1389,"o":"m 1389 -174 l 0 -174 l 0 1215 l 1389 1215 l 1389 -174 m 1215 521 l 1215 694 l 1042 694 l 1042 868 l 868 868 l 868 1042 l 521 1042 l 521 868 l 694 868 l 694 694 l 174 694 l 174 521 l 694 521 l 694 347 l 521 347 l 521 174 l 868 174 l 868 347 l 1042 347 l 1042 521 l 1215 521 z "},"ƒ":{"ha":1389,"x_min":0,"x_max":1389,"o":"m 521 694 l 0 694 l 0 1215 l 521 1215 l 521 694 m 1389 -174 l 0 -174 l 0 347 l 868 347 l 868 1215 l 1389 1215 l 1389 -174 z "},"ˆ":{"ha":1389,"x_min":0,"x_max":1215,"o":"m 1215 1042 l 1042 1042 l 1042 868 l 868 868 l 868 694 l 694 694 l 694 521 l 521 521 l 521 347 l 347 347 l 347 174 l 174 174 l 174 0 l 0 0 l 0 1215 l 1215 1215 l 1215 1042 z "},"˜":{"ha":1389,"x_min":0,"x_max":1389,"o":"m 1389 694 l 868 694 l 868 1215 l 1389 1215 l 1389 694 m 521 694 l 0 694 l 0 1215 l 521 1215 l 521 694 m 1389 -174 l 0 -174 l 0 347 l 1389 347 l 1389 -174 z "},"–":{"ha":1389,"x_min":347,"x_max":1389,"o":"m 1389 -174 l 347 -174 l 347 1215 l 1389 1215 l 1389 -174 z "},"—":{"ha":1389,"x_min":0,"x_max":1389,"o":"m 1389 694 l 0 694 l 0 1215 l 1389 1215 l 1389 694 m 1389 -174 l 868 -174 l 868 347 l 1389 347 l 1389 -174 m 521 -174 l 0 -174 l 0 347 l 521 347 l 521 -174 z "},"‘":{"ha":1389,"x_min":0,"x_max":1389,"o":"m 1389 694 l 521 694 l 521 -174 l 0 -174 l 0 1215 l 1389 1215 l 1389 694 m 1389 -174 l 868 -174 l 868 347 l 1389 347 l 1389 -174 z "},"’":{"ha":1389,"x_min":0,"x_max":1389,"o":"m 1389 694 l 0 694 l 0 1215 l 1389 1215 l 1389 694 m 1389 -174 l 0 -174 l 0 347 l 1389 347 l 1389 -174 z "},"‚":{"ha":1389,"x_min":0,"x_max":1042,"o":"m 1042 -174 l 0 -174 l 0 1215 l 1042 1215 l 1042 -174 z "},"“":{"ha":1389,"x_min":0,"x_max":1389,"o":"m 1389 694 l 868 694 l 868 1215 l 1389 1215 l 1389 694 m 521 694 l 0 694 l 0 1215 l 521 1215 l 521 694 m 1389 -174 l 868 -174 l 868 347 l 1389 347 l 1389 -174 m 521 -174 l 0 -174 l 0 347 l 521 347 l 521 -174 z "},"”":{"ha":1389,"x_min":0,"x_max":1389,"o":"m 1389 -174 l 0 -174 l 0 1215 l 1389 1215 l 1389 -174 m 1215 174 l 1215 694 l 1042 694 l 1042 868 l 347 868 l 347 694 l 174 694 l 174 174 l 347 174 l 347 0 l 1042 0 l 1042 174 l 1215 174 z "},"„":{"ha":1389,"x_min":0,"x_max":1389,"o":"m 1389 -174 l 868 -174 l 868 1215 l 1389 1215 l 1389 -174 m 521 694 l 0 694 l 0 1215 l 521 1215 l 521 694 m 521 -174 l 0 -174 l 0 347 l 521 347 l 521 -174 z "},"†":{"ha":1389,"x_min":0,"x_max":1389,"o":"m 1042 1042 l 868 1042 l 868 868 l 694 868 l 694 694 l 521 694 l 521 521 l 347 521 l 347 347 l 174 347 l 174 174 l 0 174 l 0 1215 l 1042 1215 l 1042 1042 m 1389 -174 l 347 -174 l 347 0 l 521 0 l 521 174 l 694 174 l 694 347 l 868 347 l 868 521 l 1042 521 l 1042 694 l 1215 694 l 1215 868 l 1389 868 l 1389 -174 z "},"‡":{"ha":1389,"x_min":0,"x_max":1389,"o":"m 1389 174 l 1215 174 l 1215 347 l 1042 347 l 1042 521 l 868 521 l 868 694 l 694 694 l 694 868 l 521 868 l 521 1042 l 347 1042 l 347 1215 l 1389 1215 l 1389 174 m 1042 -174 l 0 -174 l 0 868 l 174 868 l 174 694 l 347 694 l 347 521 l 521 521 l 521 347 l 694 347 l 694 174 l 868 174 l 868 0 l 1042 0 l 1042 -174 z "},"•":{"ha":1389,"x_min":0,"x_max":1389,"o":"m 1389 521 l 0 521 l 0 1215 l 1389 1215 l 1389 521 z "},"…":{"ha":1389,"x_min":0,"x_max":1389,"o":"m 1389 -174 l 868 -174 l 868 694 l 0 694 l 0 1215 l 1389 1215 l 1389 -174 m 521 -174 l 0 -174 l 0 347 l 521 347 l 521 -174 z "},"‰":{"ha":1389,"x_min":0,"x_max":1389,"o":"m 1389 521 l 694 521 l 694 -174 l 0 -174 l 0 1215 l 1389 1215 l 1389 521 z "},"‹":{"ha":1389,"x_min":0,"x_max":1389,"o":"m 1389 -174 l 0 -174 l 0 1215 l 694 1215 l 694 521 l 1389 521 l 1389 -174 z "},"™":{"ha":1389,"x_min":694,"x_max":1389,"o":"m 1389 -174 l 694 -174 l 694 1215 l 1389 1215 l 1389 -174 z "}}}
